HIERARCHY
ROOT Hips
{
    OFFSET   0.000000   0.000000   0.000000
    CHANNELS 6 Xposition Yposition Zposition Zrotation Xrotation Yrotation
    JOINT Chest
    {
        OFFSET   0.000000   8.007230   0.000000
        CHANNELS 3 Zrotation Xrotation Yrotation
        JOINT Chest2
        {
            OFFSET   0.000000  22.077100   0.000000
            CHANNELS 3 Zrotation Xrotation Yrotation
            JOINT Neck
            {
                OFFSET   0.000000  23.254800   0.000000
                CHANNELS 3 Zrotation Xrotation Yrotation
                JOINT Head
                {
                    OFFSET   0.000010  14.370000   1.956600
                    CHANNELS 3 Zrotation Xrotation Yrotation
                    End Site
                    {
                        OFFSET   0.000000  19.566000   0.000000
                    }
                }
            }
            JOINT LeftCollar
            {
                OFFSET   3.911900  19.017000  -0.467062
                CHANNELS 3 Zrotation Xrotation Yrotation
                JOINT LeftShoulder
                {
                    OFFSET  10.383700   0.000000   0.000000
                    CHANNELS 3 Zrotation Xrotation Yrotation
                    JOINT LeftElbow
                    {
                        OFFSET  26.662100   0.001193   0.000835
                        CHANNELS 3 Zrotation Xrotation Yrotation
                        JOINT LeftWrist
                        {
                            OFFSET  28.869000  -0.000058  -0.000075
                            CHANNELS 3 Zrotation Xrotation Yrotation
                            JOINT LeftFinger0
                            {
                                OFFSET   2.044660  -2.323460   3.252850
                                CHANNELS 3 Zrotation Xrotation Yrotation
                                JOINT LeftFinger01
                                {
                                    OFFSET   3.088130   0.000000   0.000000
                                    CHANNELS 3 Zrotation Xrotation Yrotation
                                    JOINT LeftFinger02
                                    {
                                        OFFSET   2.639450   0.000000   0.000000
                                        CHANNELS 3 Zrotation Xrotation Yrotation
                                        End Site
                                        {
                                            OFFSET   2.582190   0.000000   0.000000
                                        }
                                    }
                                }
                            }
                            JOINT LeftFinger1
                            {
                                OFFSET   8.364480   0.000000   3.252850
                                CHANNELS 3 Zrotation Xrotation Yrotation
                                JOINT LeftFinger11
                                {
                                    OFFSET   4.646920   0.000000   0.000000
                                    CHANNELS 3 Zrotation Xrotation Yrotation
                                    JOINT LeftFinger12
                                    {
                                        OFFSET   2.323460   0.000000   0.000000
                                        CHANNELS 3 Zrotation Xrotation Yrotation
                                        End Site
                                        {
                                            OFFSET   2.273050   0.000000   0.000000
                                        }
                                    }
                                }
                            }
                            JOINT LeftFinger2
                            {
                                OFFSET   8.364490   0.000016   1.078090
                                CHANNELS 3 Zrotation Xrotation Yrotation
                                JOINT LeftFinger21
                                {
                                    OFFSET   5.111620   0.000000   0.000000
                                    CHANNELS 3 Zrotation Xrotation Yrotation
                                    JOINT LeftFinger22
                                    {
                                        OFFSET   2.788150   0.000012   0.000000
                                        CHANNELS 3 Zrotation Xrotation Yrotation
                                        End Site
                                        {
                                            OFFSET   2.727660   0.000000   0.000000
                                        }
                                    }
                                }
                            }
                            JOINT LeftFinger3
                            {
                                OFFSET   7.899780   0.000014  -1.078090
                                CHANNELS 3 Zrotation Xrotation Yrotation
                                JOINT LeftFinger31
                                {
                                    OFFSET   4.646930   0.000000   0.000000
                                    CHANNELS 3 Zrotation Xrotation Yrotation
                                    JOINT LeftFinger32
                                    {
                                        OFFSET   2.323470   0.000000   0.000000
                                        CHANNELS 3 Zrotation Xrotation Yrotation
                                        End Site
                                        {
                                            OFFSET   2.273050   0.000000   0.000000
                                        }
                                    }
                                }
                            }
                            JOINT LeftFinger4
                            {
                                OFFSET   7.435090   0.000000  -3.252850
                                CHANNELS 3 Zrotation Xrotation Yrotation
                                JOINT LeftFinger41
                                {
                                    OFFSET   3.717550   0.000000   0.000000
                                    CHANNELS 3 Zrotation Xrotation Yrotation
                                    JOINT LeftFinger42
                                    {
                                        OFFSET   1.858770   0.000000   0.000000
                                        CHANNELS 3 Zrotation Xrotation Yrotation
                                        End Site
                                        {
                                            OFFSET   1.818440   0.000000   0.000000
                                        }
                                    }
                                }
                            }
                        }
                    }
                }
            }
            JOINT RightCollar
            {
                OFFSET  -3.911900  19.017000  -0.467063
                CHANNELS 3 Zrotation Xrotation Yrotation
                JOINT RightShoulder
                {
                    OFFSET -10.383700   0.000023   0.000000
                    CHANNELS 3 Zrotation Xrotation Yrotation
                    JOINT RightElbow
                    {
                        OFFSET -26.662100   0.001246   0.001011
                        CHANNELS 3 Zrotation Xrotation Yrotation
                        JOINT RightWrist
                        {
                            OFFSET -28.869000  -0.000026  -0.000078
                            CHANNELS 3 Zrotation Xrotation Yrotation
                            JOINT RightFinger0
                            {
                                OFFSET  -2.044660  -2.323490   3.252850
                                CHANNELS 3 Zrotation Xrotation Yrotation
                                JOINT RightFinger01
                                {
                                    OFFSET  -3.088130   0.000000   0.000000
                                    CHANNELS 3 Zrotation Xrotation Yrotation
                                    JOINT RightFinger02
                                    {
                                        OFFSET  -2.639460   0.000000   0.000000
                                        CHANNELS 3 Zrotation Xrotation Yrotation
                                        End Site
                                        {
                                            OFFSET  -2.582190   0.000000   0.000000
                                        }
                                    }
                                }
                            }
                            JOINT RightFinger1
                            {
                                OFFSET  -8.364480   0.000000   3.252850
                                CHANNELS 3 Zrotation Xrotation Yrotation
                                JOINT RightFinger11
                                {
                                    OFFSET  -4.646920   0.000000   0.000000
                                    CHANNELS 3 Zrotation Xrotation Yrotation
                                    JOINT RightFinger12
                                    {
                                        OFFSET  -2.323470   0.000000   0.000000
                                        CHANNELS 3 Zrotation Xrotation Yrotation
                                        End Site
                                        {
                                            OFFSET  -2.273050   0.000000   0.000000
                                        }
                                    }
                                }
                            }
                            JOINT RightFinger2
                            {
                                OFFSET  -8.364480   0.000000   1.078090
                                CHANNELS 3 Zrotation Xrotation Yrotation
                                JOINT RightFinger21
                                {
                                    OFFSET  -5.111620   0.000000   0.000000
                                    CHANNELS 3 Zrotation Xrotation Yrotation
                                    JOINT RightFinger22
                                    {
                                        OFFSET  -2.788160   0.000000   0.000000
                                        CHANNELS 3 Zrotation Xrotation Yrotation
                                        End Site
                                        {
                                            OFFSET  -2.727660   0.000000   0.000000
                                        }
                                    }
                                }
                            }
                            JOINT RightFinger3
                            {
                                OFFSET  -7.899780   0.000000  -1.078090
                                CHANNELS 3 Zrotation Xrotation Yrotation
                                JOINT RightFinger31
                                {
                                    OFFSET  -4.646930   0.000000   0.000000
                                    CHANNELS 3 Zrotation Xrotation Yrotation
                                    JOINT RightFinger32
                                    {
                                        OFFSET  -2.323470   0.000000   0.000000
                                        CHANNELS 3 Zrotation Xrotation Yrotation
                                        End Site
                                        {
                                            OFFSET  -2.273050   0.000000   0.000000
                                        }
                                    }
                                }
                            }
                            JOINT RightFinger4
                            {
                                OFFSET  -7.435090   0.000000  -3.252850
                                CHANNELS 3 Zrotation Xrotation Yrotation
                                JOINT RightFinger41
                                {
                                    OFFSET  -3.717550   0.000000   0.000000
                                    CHANNELS 3 Zrotation Xrotation Yrotation
                                    JOINT RightFinger42
                                    {
                                        OFFSET  -1.858760   0.000000   0.000000
                                        CHANNELS 3 Zrotation Xrotation Yrotation
                                        End Site
                                        {
                                            OFFSET  -1.818440   0.000000   0.000000
                                        }
                                    }
                                }
                            }
                        }
                    }
                }
            }
        }
    }
    JOINT LeftHip
    {
        OFFSET   9.783010   0.000000   0.000000
        CHANNELS 3 Zrotation Xrotation Yrotation
        JOINT LeftKnee
        {
            OFFSET   0.000073 -41.789100   0.001749
            CHANNELS 3 Zrotation Xrotation Yrotation
            JOINT LeftAnkle
            {
                OFFSET   0.000111 -41.133200  -0.000179
                CHANNELS 3 Zrotation Xrotation Yrotation
                JOINT LeftToe
                {
                    OFFSET   0.000000  -6.358960  14.674500
                    CHANNELS 3 Zrotation Xrotation Yrotation
                    End Site
                    {
                        OFFSET   0.000000   0.000000   3.913200
                    }
                }
            }
        }
    }
    JOINT RightHip
    {
        OFFSET  -9.783010   0.000000   0.000000
        CHANNELS 3 Zrotation Xrotation Yrotation
        JOINT RightKnee
        {
            OFFSET   0.000424 -41.789200   0.005205
            CHANNELS 3 Zrotation Xrotation Yrotation
            JOINT RightAnkle
            {
                OFFSET   0.000000 -41.133200  -0.000155
                CHANNELS 3 Zrotation Xrotation Yrotation
                JOINT RightToe
                {
                    OFFSET   0.000000  -6.358960  14.674500
                    CHANNELS 3 Zrotation Xrotation Yrotation
                    End Site
                    {
                        OFFSET   0.000000   0.000000   3.913200
                    }
                }
            }
        }
    }
}
MOTION
Frames: 5
Frame Time:   0.016667
-11.689000  87.750000  -1.746500   1.141580 -26.553400  16.192600   3.190230  13.318200  -1.289890   6.992910  26.534600  -3.513650   7.068650  -0.598232   0.065871  11.616700  -1.160780  -7.977590  -0.838088  -2.104740   1.931540 -73.773200  24.137800 -11.611600  -1.131940  -9.459020 -18.900100  14.346700  -4.243530   1.462840  48.564500  44.968800 -80.016600 -30.815500  -0.001337  -0.000743 -10.407700  -0.002579  -0.001506 -29.487300   3.616850  -6.372900 -24.290100   0.001482   0.003167 -17.003000   0.002264   0.003569 -28.639600  -1.078090   1.973850 -38.111300  -0.003933  -0.000445 -25.382100   0.002993   0.011644 -28.356000  -1.068590   1.978980 -34.870200  -0.002549   0.003360 -23.223500  -0.002145   0.001591 -32.679900  -1.214000   1.893270 -49.049200  -0.002166   0.001199 -32.666800   0.000846  -0.000232   7.062790  -3.026920   4.840330  69.590100  14.157800   7.474620  -1.820840  -6.062180  10.656800 -12.211500   0.144671   2.805400 -38.533900  30.024600  62.208900  29.686000   0.001279  -0.000649   9.842970   0.001749   0.006349  33.165300   9.023170  13.494800  28.010500   0.014363   0.010666  19.607400   0.016427   0.003852  28.843800   4.731700   8.518360  43.794500   0.036436   0.017940  29.167100   0.028450   0.002140  28.517100   4.013610   7.340650  41.058100   0.040617   0.024040  27.344700   0.032732  -0.000467  38.334700  -0.604441  -0.764380  57.508100   0.060176  -0.003092  38.300400   0.023709  -0.032400  12.998800   8.020720   3.924650  -1.674880  29.014900  10.616600  -4.794660  -9.777080   0.268318  -0.000000   0.000000   0.000000  14.863500  27.242200  -5.378410   0.495229   2.375480 -14.361200  -5.230630  -7.293140  -7.400620   0.000000   0.000000   0.000000
-11.693200  87.801000  -1.751930   1.096470 -26.551400  16.155200   3.201610  13.315800  -1.298310   7.018140  26.528900  -3.532430   7.066010  -0.595484   0.066017  11.612400  -1.152170  -7.937090  -0.848060  -2.095810   1.932840 -73.815000  24.143800 -11.608900  -1.177090  -9.450840 -18.859600  14.292400  -4.160040   1.493190  48.614800  45.016500 -80.047700 -30.835100  -0.001331  -0.000777 -10.417500  -0.002578  -0.001510 -29.549300   3.573850  -6.275150 -24.336900   0.001482   0.003166 -17.035800   0.002264   0.003632 -28.635700  -1.136020   2.079860 -38.144400  -0.003932  -0.000444 -25.404200   0.002993   0.011628 -28.358600  -1.126200   2.085180 -34.915000  -0.002549   0.003360 -23.253400  -0.002145   0.001591 -32.703000  -1.281010   1.993870 -49.087500  -0.002166   0.001199 -32.692300   0.000847  -0.000232   7.063920  -3.024730   4.842120  69.564300  14.158400   7.481060  -1.866960  -6.075860  10.751100 -12.203600   0.070472   2.827190 -38.546600  30.033100  62.201800  29.659500   0.001286  -0.000646   9.829710   0.001746   0.006352  33.173700   9.029400  13.499700  28.018200   0.021434   0.010723  19.612800   0.023888   0.003678  28.862200   4.739740   8.526180  43.823600   0.047857   0.021387  29.186500   0.035505   0.002018  28.518000   4.009640   7.332960  41.110600   0.051298   0.026243  27.379700   0.039548  -0.000780  38.362200  -0.612007  -0.773112  57.549500   0.074206  -0.003579  38.328000   0.029662  -0.039792  13.041100   8.034670   3.927530  -1.636880  28.878300  10.785900  -4.759580  -9.061110   0.078839   0.000000   0.000000   0.000000  14.883800  27.246200  -5.379130   0.500641   2.366090 -14.334000  -5.212680  -7.303310  -7.394640  -0.000000   0.000000   0.000000
-11.701200  87.801900  -1.753050   1.054320 -26.539200  16.121600   3.208990  13.311600  -1.310190   7.036230  26.519400  -3.558680   7.064240  -0.591536   0.066156  11.609200  -1.144490  -7.909120  -0.852278  -2.090710   1.938470 -73.858500  24.164800 -11.599300  -1.226840  -9.453270 -18.788000  14.253700  -4.081000   1.516600  48.639900  45.044700 -80.054400 -30.850300  -0.001332  -0.000773 -10.425100  -0.002578  -0.001508 -29.565900   3.558800  -6.244540 -24.349200   0.001480   0.003166 -17.044500   0.002264   0.003697 -28.631300  -1.163180   2.129860 -38.140100  -0.003931  -0.000443 -25.401300   0.002993   0.011613 -28.356600  -1.153160   2.135300 -34.913600  -0.002549   0.003358 -23.252500  -0.002146   0.001593 -32.698600  -1.311430   2.041980 -49.083900  -0.002167   0.001200 -32.689900   0.000847  -0.000232   7.066110  -3.030150   4.843760  69.554700  14.150700   7.479830  -1.934360  -6.068250  10.862900 -12.181400  -0.011730   2.854050 -38.575400  30.065100  62.202100  29.630600   0.001284  -0.000640   9.815260   0.001756   0.006357  33.176600   9.034160  13.504600  28.021300   0.025727   0.010785  19.614900   0.028247   0.003337  28.878700   4.747840   8.532810  43.849600   0.045674   0.019287  29.203800   0.033610   0.001796  28.518900   4.006140   7.326160  41.155400   0.047102   0.023204  27.409500   0.036092  -0.001205  38.386400  -0.618592  -0.780762  57.585800   0.066148  -0.003182  38.352200   0.026483  -0.035489  13.096300   7.983040   3.981270  -1.641290  28.947700  10.788800  -4.820590  -9.072130   0.032962  -0.000000   0.000000  -0.000000  14.905900  27.239800  -5.369000   0.504560   2.352580 -14.319500  -5.215720  -7.302990  -7.400300  -0.000000   0.000000   0.000000
-11.706800  87.802000  -1.753210   1.009880 -26.526600  16.085500   3.214760  13.307300  -1.323560   7.051350  26.509800  -3.587610   7.062180  -0.586094   0.066277  11.605400  -1.134520  -7.890740  -0.856261  -2.084360   1.942850 -73.900700  24.181300 -11.583000  -1.280950  -9.458140 -18.695600  14.224900  -4.005180   1.528050  48.667800  45.064800 -80.049700 -30.867500  -0.001333  -0.000764 -10.433800  -0.002580  -0.001507 -29.568300   3.556650  -6.240160 -24.350900   0.001478   0.003165 -17.045700   0.002264   0.003764 -28.625300  -1.172190   2.146550 -38.110000  -0.003930  -0.000443 -25.381200   0.002994   0.011597 -28.355900  -1.162090   2.152040 -34.904100  -0.002549   0.003357 -23.246100  -0.002146   0.001594 -32.682000  -1.321240   2.058230 -49.058500  -0.002168   0.001200 -32.673000   0.000846  -0.000233   7.068280  -3.038930   4.844630  69.548200  14.143000   7.477870  -2.009380  -6.051360  10.989600 -12.155200  -0.096536   2.884610 -38.622800  30.109000  62.209900  29.614000   0.001282  -0.000637   9.806990   0.001765   0.006363  33.181800   9.036050  13.506800  28.025900   0.027474   0.010824  19.618100   0.029989   0.003012  28.897500   4.752030   8.535590  43.878500   0.040816   0.015920  29.223100   0.029638   0.001600  28.519800   4.002380   7.318850  41.203600   0.039961   0.018667  27.441600   0.030275  -0.001372  38.413200  -0.625925  -0.789261  57.626200   0.050379  -0.002469  38.379100   0.020232  -0.027048  13.157600   7.900860   4.032360  -1.659380  29.108200  10.774300  -4.936380  -9.149200   0.026414   0.000000   0.000000   0.000000  14.929700  27.228700  -5.357470   0.509565   2.344000 -14.307300  -5.221750  -7.302670  -7.405960   0.000000   0.000000   0.000000
-11.701600  87.770300  -1.741830   0.953492 -26.522200  16.039500   3.222330  13.304900  -1.336430   7.069690  26.503900  -3.616040   7.058690  -0.578876   0.066363  11.599600  -1.120690  -7.878350  -0.864354  -2.074960   1.934470 -73.933200  24.178500 -11.559400  -1.344710  -9.473120 -18.594300  14.212200  -3.942510   1.513100  48.681600  45.081600 -80.019200 -30.901000  -0.001332  -0.000747 -10.450900  -0.002586  -0.001508 -29.515800   3.607010  -6.341290 -24.312700   0.001480   0.003167 -17.018900   0.002268   0.003829 -28.619600  -1.123410   2.057330 -38.010300  -0.003929  -0.000443 -25.314800   0.002993   0.011580 -28.348800  -1.113620   2.062640 -34.817500  -0.002547   0.003358 -23.188400  -0.002145   0.001592 -32.627800  -1.264670   1.973680 -48.976100  -0.002168   0.001199 -32.618100   0.000847  -0.000232   7.069830  -3.046960   4.837830  69.536300  14.147500   7.476090  -2.084260  -6.018060  11.127600 -12.140500  -0.179688   2.919020 -38.653100  30.148100  62.219800  29.614700   0.001285  -0.000639   9.807320   0.001759   0.006366  33.200300   9.036020  13.503200  28.039200   0.023023   0.010745  19.627400   0.024200   0.002709  28.925000   4.750660   8.525570  43.919000   0.033982   0.013715  29.250100   0.024462   0.001435  28.521000   3.997350   7.309080  41.268000   0.033873   0.016383  27.484500   0.025441  -0.001315  38.450900  -0.636270  -0.801202  57.683100   0.030861  -0.001742  38.416900   0.012308  -0.016545  13.217900   7.829690   4.029730  -1.694730  29.364300  10.615500  -5.079160  -9.621690   0.134155  -0.000000   0.000000  -0.000000  14.958800  27.217000  -5.356110   0.520743   2.346930 -14.293500  -5.231030  -7.306280  -7.399970   0.000000   0.000000  -0.000000
